<svg fill="none" height="24" viewBox="0 0 24 24" width="24" xmlns="http://www.w3.org/2000/svg"><path d="m0 12c0 5.123 3.211 9.497 7.73 11.218-.11-.937-.227-2.482.025-3.566.217-.932 1.401-5.938 1.401-5.938s-.357-.715-.357-1.774c0-1.66.962-2.9 2.161-2.9 1.02 0 1.512.765 1.512 1.682 0 1.025-.653 2.557-.99 3.978-.281 1.189.597 2.159 1.769 2.159 2.123 0 3.756-2.239 3.756-5.471 0-2.861-2.056-4.86-4.991-4.86-3.398 0-5.393 2.549-5.393 5.184 0 1.027.395 2.127.889 2.726.04212.0452.07187.1006.08641.1606.01454.0601.01336.1229-.00341.1824-.091.378-.293 1.189-.332 1.355-.053.218-.173.265-.4.159-1.492-.694-2.424-2.875-2.424-4.627 0-3.769 2.737-7.229 7.892-7.229 4.144 0 7.365 2.953 7.365 6.899 0 4.117-2.595 7.431-6.199 7.431-1.211 0-2.348-.63-2.738-1.373 0 0-.599 2.282-.744 2.84-.282 1.084-1.064 2.456-1.549 3.235 1.118.344 2.304.529 3.534.529 6.627 0 12-5.373 12-12s-5.373-12-12-12-12 5.373-12 12z" fill="#000"/></svg>